<?xml version="1.0" encoding="UTF-8"?>
<svg xmlns="http://www.w3.org/2000/svg" version="1.1" viewBox="0 0 1920 1080">
  <defs>
    <style>
      .cls-1 {
        fill: #3f99ea;
      }

      .cls-2 {
        fill: #1378aa;
      }

      .cls-3 {
        fill: #e7f3ff;
      }
    </style>
  </defs>
  <!-- Generator: Adobe Illustrator 28.7.1, SVG Export Plug-In . SVG Version: 1.2.0 Build 142)  -->
  <g>
    <g id="Layer_1">
      <g>
        <rect class="cls-3" x=".5" y=".5" width="1919" height="1079"/>
        <path class="cls-3" d="M1919,1v1078H1V1h1918M1920,0H0v1080h1920V0h0Z"/>
      </g>
      <g>
        <rect class="cls-2" x="-751.55" y="-372.44" width="2539.99" height="1035.34" transform="translate(58.92 425.8) rotate(-47.06)"/>
        <path class="cls-3" d="M1004.75-1136.4l757.16,704.68L32.13,1426.87l-757.16-704.68L1004.75-1136.4M1004.7-1137.82L-726.44,722.23,32.18,1428.28,1763.32-431.77l-758.62-706.04h0Z"/>
      </g>
      <g>
        <rect class="cls-1" x="950.19" y="-1297.28" width="1035.34" height="2539.99" transform="translate(757.56 1257.56) rotate(-60)"/>
        <path class="cls-3" d="M627.03-1109.92L2825.86,159.58l-517.17,895.77L109.86-214.15l517.17-895.77M626.66-1111.28L108.49-213.78l2200.56,1270.5,518.17-897.5L626.66-1111.28h0Z"/>
      </g>
    </g>
  </g>
</svg>